<?xml version="1.0" standalone="no"?>
<!DOCTYPE svg PUBLIC "-//W3C//DTD SVG 20010904//EN"
 "http://www.w3.org/TR/2001/REC-SVG-20010904/DTD/svg10.dtd">
<svg version="1.0" xmlns="http://www.w3.org/2000/svg"
 width="264.000000pt" height="140.000000pt" viewBox="0 0 264.000000 140.000000"
 preserveAspectRatio="xMidYMid meet">

<g transform="translate(0.000000,140.000000) scale(0.100000,-0.100000)"
fill="#000000" stroke="none">
<path d="M1451 1253 l-43 -4 6 -57 c3 -31 15 -147 26 -257 40 -379 46 -418 79
-483 40 -79 106 -144 189 -184 62 -31 74 -33 167 -33 92 0 106 3 167 32 241
114 309 406 145 613 -72 91 -196 149 -315 150 l-43 0 3 -52 3 -53 61 -7 c80
-9 131 -35 188 -99 82 -91 97 -210 41 -325 -104 -212 -408 -201 -505 17 -16
37 -28 122 -55 385 -20 187 -38 345 -40 352 -2 6 -10 11 -17 10 -7 -1 -33 -3
-57 -5z"/>
<path d="M213 1123 c-36 -4 -43 -8 -43 -26 0 -12 18 -193 40 -402 23 -209 46
-432 53 -495 l12 -115 55 4 c30 1 57 5 59 7 3 2 -3 77 -13 167 -31 279 -32
346 -8 394 39 76 118 126 202 127 60 0 100 -16 142 -58 42 -43 55 -83 71 -223
13 -108 21 -142 43 -183 34 -63 81 -105 154 -139 77 -36 202 -37 275 -1 66 32
121 90 153 159 32 69 32 137 -1 421 l-22 195 -55 -3 c-30 -2 -56 -5 -58 -6 -1
-2 10 -116 24 -254 26 -242 26 -253 10 -296 -35 -91 -97 -135 -190 -136 -84 0
-177 68 -200 146 -3 11 -12 74 -20 140 -16 137 -39 197 -98 256 -60 60 -111
81 -210 86 -77 4 -92 2 -145 -22 -32 -15 -70 -39 -85 -53 -15 -15 -30 -24 -33
-21 -3 2 -12 74 -21 159 -17 173 -18 180 -36 177 -7 -1 -32 -3 -55 -5z"/>
<path d="M2382 439 c-10 -16 -19 -19 -39 -15 -24 7 -24 6 -9 -15 11 -17 12
-27 4 -42 -9 -18 -8 -19 15 -13 17 4 27 1 31 -9 8 -23 28 -18 21 4 -4 15 1 24
22 35 l28 14 -27 7 c-19 5 -28 14 -30 31 -3 25 -3 25 -16 3z"/>
<path d="M2383 317 c-57 -5 -103 -14 -103 -19 0 -6 6 -8 14 -5 7 3 51 9 97 12
46 4 91 11 99 16 8 5 11 8 5 7 -5 0 -56 -5 -112 -11z"/>
</g>
</svg>
